<svg width="200" height="200" viewBox="0 0 200 200" fill="none" xmlns="http://www.w3.org/2000/svg">
<path d="M70 186.281C73.3 188.219 77.35 188.119 80.65 186.175C97.3 176.363 124.662 155.125 135.594 127.75C152.094 91.1001 113.356 61.8438 86.5812 82.8876C84.0812 84.8501 81.0062 87.0688 78.6625 89.2126C77.1187 90.6251 74.45 90.7626 72.8812 89.3938C69.5265 86.5312 66.0193 83.8523 62.375 81.3688C39.55 65.9313 -1.98127 86.2876 15.7312 129.731C22.0562 148.738 51.6125 175.513 70 186.281Z" fill="url(#paint0_radial_75_1280)"/>
<path d="M70 186.281C73.3 188.219 77.35 188.119 80.65 186.175C97.3 176.363 124.662 155.125 135.594 127.75C152.094 91.1001 113.356 61.8438 86.5812 82.8876C84.0812 84.8501 81.0062 87.0688 78.6625 89.2126C77.1187 90.6251 74.45 90.7626 72.8812 89.3938C69.5265 86.5312 66.0193 83.8523 62.375 81.3688C39.55 65.9313 -1.98127 86.2876 15.7312 129.731C22.0562 148.738 51.6125 175.513 70 186.281Z" fill="url(#paint1_radial_75_1280)"/>
<path d="M70 186.281C73.3 188.219 77.35 188.119 80.65 186.175C97.3 176.363 124.662 155.125 135.594 127.75C152.094 91.1001 113.356 61.8438 86.5812 82.8876C84.0812 84.8501 81.0062 87.0688 78.6625 89.2126C77.1187 90.6251 74.45 90.7626 72.8812 89.3938C69.5265 86.5312 66.0193 83.8523 62.375 81.3688C39.55 65.9313 -1.98127 86.2876 15.7312 129.731C22.0562 148.738 51.6125 175.513 70 186.281Z" fill="url(#paint2_radial_75_1280)"/>
<path d="M70 186.281C73.3 188.219 77.35 188.119 80.65 186.175C97.3 176.363 124.662 155.125 135.594 127.75C152.094 91.1001 113.356 61.8438 86.5812 82.8876C84.0812 84.8501 81.0062 87.0688 78.6625 89.2126C77.1187 90.6251 74.45 90.7626 72.8812 89.3938C69.5265 86.5312 66.0193 83.8523 62.375 81.3688C39.55 65.9313 -1.98127 86.2876 15.7312 129.731C22.0562 148.738 51.6125 175.513 70 186.281Z" fill="url(#paint3_radial_75_1280)"/>
<path d="M70 186.281C73.3 188.219 77.35 188.119 80.65 186.175C97.3 176.363 124.662 155.125 135.594 127.75C152.094 91.1001 113.356 61.8438 86.5812 82.8876C84.0812 84.8501 81.0062 87.0688 78.6625 89.2126C77.1187 90.6251 74.45 90.7626 72.8812 89.3938C69.5265 86.5312 66.0193 83.8523 62.375 81.3688C39.55 65.9313 -1.98127 86.2876 15.7312 129.731C22.0562 148.738 51.6125 175.513 70 186.281Z" fill="url(#paint4_linear_75_1280)"/>
<path d="M70 186.281C73.3 188.219 77.35 188.119 80.65 186.175C97.3 176.363 124.662 155.125 135.594 127.75C152.094 91.1001 113.356 61.8438 86.5812 82.8876C84.0812 84.8501 81.0062 87.0688 78.6625 89.2126C77.1187 90.6251 74.45 90.7626 72.8812 89.3938C69.5265 86.5312 66.0193 83.8523 62.375 81.3688C39.55 65.9313 -1.98127 86.2876 15.7312 129.731C22.0562 148.738 51.6125 175.513 70 186.281Z" fill="url(#paint5_linear_75_1280)"/>
<path d="M73.0125 89.5124C78.2625 94.8312 86.9125 93.0937 91.9375 87.5562C97 81.9812 103.7 76.9312 112.187 76.3874C103.794 74.7749 94.6437 76.5499 86.5812 82.8874C85.8874 83.4312 85.1437 83.9937 84.3937 84.5749C82.1625 86.2812 79.7937 88.0937 77.9874 89.8499C76.8249 90.9749 74.775 91.0999 73.575 90.0062C73.3887 89.8381 73.2012 89.6776 73.0125 89.5124Z" fill="url(#paint6_linear_75_1280)"/>
<g filter="url(#filter0_f_75_1280)">
<path d="M78.2125 102.469V154.356C78.2125 160.012 84.5875 162.269 87.4625 157.4C95.4313 143.931 102.163 124.969 97.3938 109.625C94.7188 101.025 87.0125 97.625 81.6813 97.9312C79.4438 98.0562 78.2125 100.231 78.2125 102.469Z" fill="#FA1C56"/>
</g>
<g filter="url(#filter1_f_75_1280)">
<path d="M124.862 113.822C132.441 106.455 134.475 96.2547 129.405 91.0398C124.336 85.8249 114.082 87.5697 106.504 94.937C98.9253 102.304 96.8913 112.504 101.961 117.719C107.03 122.934 117.284 121.189 124.862 113.822Z" fill="url(#paint7_radial_75_1280)"/>
</g>
<g filter="url(#filter2_f_75_1280)">
<path d="M71.178 98.4582C62.7035 87.9762 51.2487 83.1857 45.593 87.7582C39.9373 92.3308 42.2224 104.535 50.6969 115.017C59.1714 125.499 70.6262 130.289 76.2819 125.717C81.9376 121.144 79.6525 108.94 71.178 98.4582Z" fill="url(#paint8_radial_75_1280)" fill-opacity="0.6"/>
</g>
<path d="M140.713 83.7932C142.298 84.7792 144.13 85.2966 145.997 85.2855C147.863 85.2745 149.689 84.7354 151.263 83.7307C162.294 76.8745 178.825 63.4307 185.638 46.362C196.488 22.2557 171 3.00572 153.388 16.8495C152.106 17.8557 150.594 18.9682 149.256 20.0807C147.65 21.412 144.894 21.537 143.288 20.2057C141.409 18.6731 139.465 17.2218 137.463 15.8557C122.45 5.69321 95.125 19.087 106.775 47.6682C110.744 59.5807 128.575 76.1307 140.713 83.7932Z" fill="url(#paint9_radial_75_1280)"/>
<path d="M140.713 83.7932C142.298 84.7792 144.13 85.2966 145.997 85.2855C147.863 85.2745 149.689 84.7354 151.263 83.7307C162.294 76.8745 178.825 63.4307 185.638 46.362C196.488 22.2557 171 3.00572 153.388 16.8495C152.106 17.8557 150.594 18.9682 149.256 20.0807C147.65 21.412 144.894 21.537 143.288 20.2057C141.409 18.6731 139.465 17.2218 137.463 15.8557C122.45 5.69321 95.125 19.087 106.775 47.6682C110.744 59.5807 128.575 76.1307 140.713 83.7932Z" fill="url(#paint10_radial_75_1280)"/>
<path d="M140.713 83.7932C142.298 84.7792 144.13 85.2966 145.997 85.2855C147.863 85.2745 149.689 84.7354 151.263 83.7307C162.294 76.8745 178.825 63.4307 185.638 46.362C196.488 22.2557 171 3.00572 153.388 16.8495C152.106 17.8557 150.594 18.9682 149.256 20.0807C147.65 21.412 144.894 21.537 143.288 20.2057C141.409 18.6731 139.465 17.2218 137.463 15.8557C122.45 5.69321 95.125 19.087 106.775 47.6682C110.744 59.5807 128.575 76.1307 140.713 83.7932Z" fill="url(#paint11_radial_75_1280)"/>
<path d="M140.713 83.7932C142.298 84.7792 144.13 85.2966 145.997 85.2855C147.863 85.2745 149.689 84.7354 151.263 83.7307C162.294 76.8745 178.825 63.4307 185.638 46.362C196.488 22.2557 171 3.00572 153.388 16.8495C152.106 17.8557 150.594 18.9682 149.256 20.0807C147.65 21.412 144.894 21.537 143.288 20.2057C141.409 18.6731 139.465 17.2218 137.463 15.8557C122.45 5.69321 95.125 19.087 106.775 47.6682C110.744 59.5807 128.575 76.1307 140.713 83.7932Z" fill="url(#paint12_radial_75_1280)"/>
<path d="M140.713 83.7932C142.298 84.7792 144.13 85.2966 145.997 85.2855C147.863 85.2745 149.689 84.7354 151.263 83.7307C162.294 76.8745 178.825 63.4307 185.638 46.362C196.488 22.2557 171 3.00572 153.388 16.8495C152.106 17.8557 150.594 18.9682 149.256 20.0807C147.65 21.412 144.894 21.537 143.288 20.2057C141.409 18.6731 139.465 17.2218 137.463 15.8557C122.45 5.69321 95.125 19.087 106.775 47.6682C110.744 59.5807 128.575 76.1307 140.713 83.7932Z" fill="url(#paint13_linear_75_1280)"/>
<path d="M140.713 83.7932C142.298 84.7792 144.13 85.2966 145.997 85.2855C147.863 85.2745 149.689 84.7354 151.263 83.7307C162.294 76.8745 178.825 63.4307 185.638 46.362C196.488 22.2557 171 3.00572 153.388 16.8495C152.106 17.8557 150.594 18.9682 149.256 20.0807C147.65 21.412 144.894 21.537 143.288 20.2057C141.409 18.6731 139.465 17.2218 137.463 15.8557C122.45 5.69321 95.125 19.087 106.775 47.6682C110.744 59.5807 128.575 76.1307 140.713 83.7932Z" fill="url(#paint14_linear_75_1280)"/>
<path d="M144.462 21.2062C147.919 24.7062 153.606 23.5625 156.912 19.9188C160.244 16.2563 164.65 12.9313 170.237 12.575C164.712 11.5125 158.694 12.6813 153.387 16.85L151.95 17.9625C150.481 19.0875 149.8 19.7062 148.406 20.5875C147.637 21.3312 144.587 21.3 143.794 20.5875C144.625 21.3625 144.231 21.2125 144.462 21.2125" fill="url(#paint15_linear_75_1280)"/>
<g filter="url(#filter3_f_75_1280)">
<path d="M178.569 37.1989C183.554 32.3531 184.892 25.644 181.557 22.2136C178.222 18.7832 171.478 19.9306 166.493 24.7763C161.508 29.622 160.171 36.3312 163.506 39.7616C166.84 43.192 173.585 42.0446 178.569 37.1989Z" fill="url(#paint16_radial_75_1280)"/>
</g>
<g filter="url(#filter4_f_75_1280)">
<path d="M143.255 27.0974C137.68 20.2016 130.144 17.0498 126.424 20.0577C122.704 23.0655 124.207 31.094 129.782 37.9898C135.358 44.8857 142.893 48.0375 146.614 45.0296C150.334 42.0218 148.83 33.9933 143.255 27.0974Z" fill="url(#paint17_radial_75_1280)" fill-opacity="0.6"/>
</g>
<g filter="url(#filter5_f_75_1280)">
<path d="M147.887 27.35V80.4875C154.625 73.3437 164.856 48.4625 160.5 34.4437C158.3 27.35 150.887 25.6312 147.887 27.35Z" fill="#FA1C56"/>
</g>
<path d="M133.385 74.884H136.385V76H131.801V74.884L134.813 70.504H131.801V69.388H136.385V70.504L133.385 74.884ZM146.015 71.08V72.232H141.083V71.08H146.015ZM152.288 74.884H155.288V76H150.704V74.884L153.716 70.504H150.704V69.388H155.288V70.504L152.288 74.884ZM164.917 71.08V72.232H159.985V71.08H164.917ZM171.19 74.884H174.19V76H169.606V74.884L172.618 70.504H169.606V69.388H174.19V70.504L171.19 74.884Z" fill="white"/>
<defs>
<filter id="filter0_f_75_1280" x="76.2125" y="95.9124" width="24.7715" height="66.1558" filterUnits="userSpaceOnUse" color-interpolation-filters="sRGB">
<feFlood flood-opacity="0" result="BackgroundImageFix"/>
<feBlend mode="normal" in="SourceGraphic" in2="BackgroundImageFix" result="shape"/>
<feGaussianBlur stdDeviation="1" result="effect1_foregroundBlur_75_1280"/>
</filter>
<filter id="filter1_f_75_1280" x="97.672" y="86.5347" width="36.022" height="35.6895" filterUnits="userSpaceOnUse" color-interpolation-filters="sRGB">
<feFlood flood-opacity="0" result="BackgroundImageFix"/>
<feBlend mode="normal" in="SourceGraphic" in2="BackgroundImageFix" result="shape"/>
<feGaussianBlur stdDeviation="0.75" result="effect1_foregroundBlur_75_1280"/>
</filter>
<filter id="filter2_f_75_1280" x="40.9878" y="84.5256" width="39.8994" height="44.4236" filterUnits="userSpaceOnUse" color-interpolation-filters="sRGB">
<feFlood flood-opacity="0" result="BackgroundImageFix"/>
<feBlend mode="normal" in="SourceGraphic" in2="BackgroundImageFix" result="shape"/>
<feGaussianBlur stdDeviation="0.75" result="effect1_foregroundBlur_75_1280"/>
</filter>
<filter id="filter3_f_75_1280" x="160.171" y="18.7368" width="24.7206" height="24.5017" filterUnits="userSpaceOnUse" color-interpolation-filters="sRGB">
<feFlood flood-opacity="0" result="BackgroundImageFix"/>
<feBlend mode="normal" in="SourceGraphic" in2="BackgroundImageFix" result="shape"/>
<feGaussianBlur stdDeviation="0.75" result="effect1_foregroundBlur_75_1280"/>
</filter>
<filter id="filter4_f_75_1280" x="122.882" y="17.4182" width="27.2744" height="30.251" filterUnits="userSpaceOnUse" color-interpolation-filters="sRGB">
<feFlood flood-opacity="0" result="BackgroundImageFix"/>
<feBlend mode="normal" in="SourceGraphic" in2="BackgroundImageFix" result="shape"/>
<feGaussianBlur stdDeviation="0.75" result="effect1_foregroundBlur_75_1280"/>
</filter>
<filter id="filter5_f_75_1280" x="146.887" y="25.7329" width="15.6587" height="55.7546" filterUnits="userSpaceOnUse" color-interpolation-filters="sRGB">
<feFlood flood-opacity="0" result="BackgroundImageFix"/>
<feBlend mode="normal" in="SourceGraphic" in2="BackgroundImageFix" result="shape"/>
<feGaussianBlur stdDeviation="0.5" result="effect1_foregroundBlur_75_1280"/>
</filter>
<radialGradient id="paint0_radial_75_1280" cx="0" cy="0" r="1" gradientUnits="userSpaceOnUse" gradientTransform="translate(88.5 186.063) rotate(-90) scale(149.767 254.604)">
<stop stop-color="#F12E52"/>
<stop offset="0.596" stop-color="#FF3B79"/>
<stop offset="1" stop-color="#FF4EC6"/>
</radialGradient>
<radialGradient id="paint1_radial_75_1280" cx="0" cy="0" r="1" gradientUnits="userSpaceOnUse" gradientTransform="translate(107.3 105.084) rotate(142.986) scale(120.562 225.825)">
<stop offset="0.483" stop-color="#B91D43" stop-opacity="0"/>
<stop offset="0.834" stop-color="#B91D43"/>
</radialGradient>
<radialGradient id="paint2_radial_75_1280" cx="0" cy="0" r="1" gradientUnits="userSpaceOnUse" gradientTransform="translate(93.3661 134.614) rotate(-158.663) scale(104.577 147.835)">
<stop offset="0.41" stop-color="#B91D43" stop-opacity="0"/>
<stop offset="0.834" stop-color="#B91D43"/>
</radialGradient>
<radialGradient id="paint3_radial_75_1280" cx="0" cy="0" r="1" gradientUnits="userSpaceOnUse" gradientTransform="translate(72.975 116.35) rotate(90) scale(91.0169 91.0169)">
<stop offset="0.671" stop-color="#FF7AF2" stop-opacity="0"/>
<stop offset="0.934" stop-color="#FFBCE6"/>
</radialGradient>
<linearGradient id="paint4_linear_75_1280" x1="83.0187" y1="127.006" x2="119.856" y2="170.838" gradientUnits="userSpaceOnUse">
<stop offset="0.694" stop-color="#FF7AF2" stop-opacity="0"/>
<stop offset="0.934" stop-color="#FFBCE6"/>
</linearGradient>
<linearGradient id="paint5_linear_75_1280" x1="78.4562" y1="128.831" x2="35.2312" y2="177.538" gradientUnits="userSpaceOnUse">
<stop offset="0.694" stop-color="#FF7AF2" stop-opacity="0"/>
<stop offset="0.934" stop-color="#FFBCE6"/>
</linearGradient>
<linearGradient id="paint6_linear_75_1280" x1="92.5812" y1="95.8062" x2="79.6687" y2="81.6124" gradientUnits="userSpaceOnUse">
<stop offset="0.41" stop-color="#C12372" stop-opacity="0"/>
<stop offset="0.834" stop-color="#B5286E"/>
</linearGradient>
<radialGradient id="paint7_radial_75_1280" cx="0" cy="0" r="1" gradientUnits="userSpaceOnUse" gradientTransform="translate(132.313 93.861) rotate(139.035) scale(28.2969 19.1074)">
<stop stop-color="#FF93BA"/>
<stop offset="1" stop-color="#FF73A6" stop-opacity="0"/>
</radialGradient>
<radialGradient id="paint8_radial_75_1280" cx="0" cy="0" r="1" gradientUnits="userSpaceOnUse" gradientTransform="translate(54.6456 93.2988) rotate(52.378) scale(51.9382 27.5076)">
<stop stop-color="#FF93BA"/>
<stop offset="1" stop-color="#FF73A6" stop-opacity="0"/>
</radialGradient>
<radialGradient id="paint9_radial_75_1280" cx="0" cy="0" r="1" gradientUnits="userSpaceOnUse" gradientTransform="translate(154.65 84.7245) rotate(-90) scale(98.5275 167.496)">
<stop stop-color="#F12E52"/>
<stop offset="0.596" stop-color="#FF3B79"/>
<stop offset="1" stop-color="#FF4EC6"/>
</radialGradient>
<radialGradient id="paint10_radial_75_1280" cx="0" cy="0" r="1" gradientUnits="userSpaceOnUse" gradientTransform="translate(167.013 31.4449) rotate(142.986) scale(79.3144 148.564)">
<stop offset="0.483" stop-color="#B91D43" stop-opacity="0"/>
<stop offset="0.834" stop-color="#B91D43"/>
</radialGradient>
<radialGradient id="paint11_radial_75_1280" cx="0" cy="0" r="1" gradientUnits="userSpaceOnUse" gradientTransform="translate(157.856 50.8807) rotate(-158.663) scale(68.7988 97.2563)">
<stop offset="0.41" stop-color="#B91D43" stop-opacity="0"/>
<stop offset="0.834" stop-color="#B91D43"/>
</radialGradient>
<radialGradient id="paint12_radial_75_1280" cx="0" cy="0" r="1" gradientUnits="userSpaceOnUse" gradientTransform="translate(144.438 38.862) rotate(90) scale(59.8774 59.8774)">
<stop offset="0.671" stop-color="#FF7AF2" stop-opacity="0"/>
<stop offset="0.934" stop-color="#FFBCE6"/>
</radialGradient>
<linearGradient id="paint13_linear_75_1280" x1="151.044" y1="45.8745" x2="175.275" y2="74.712" gradientUnits="userSpaceOnUse">
<stop offset="0.694" stop-color="#FF7AF2" stop-opacity="0"/>
<stop offset="0.934" stop-color="#FFBCE6"/>
</linearGradient>
<linearGradient id="paint14_linear_75_1280" x1="148.044" y1="47.0745" x2="119.606" y2="79.1182" gradientUnits="userSpaceOnUse">
<stop offset="0.694" stop-color="#FF7AF2" stop-opacity="0"/>
<stop offset="0.934" stop-color="#FFBCE6"/>
</linearGradient>
<linearGradient id="paint15_linear_75_1280" x1="157.337" y1="25.35" x2="148.837" y2="16.0125" gradientUnits="userSpaceOnUse">
<stop offset="0.41" stop-color="#C12372" stop-opacity="0"/>
<stop offset="0.834" stop-color="#B5286E"/>
</linearGradient>
<radialGradient id="paint16_radial_75_1280" cx="0" cy="0" r="1" gradientUnits="userSpaceOnUse" gradientTransform="translate(183.474 24.065) rotate(139.035) scale(18.6157 12.5702)">
<stop stop-color="#FF93BA"/>
<stop offset="1" stop-color="#FF73A6" stop-opacity="0"/>
</radialGradient>
<radialGradient id="paint17_radial_75_1280" cx="0" cy="0" r="1" gradientUnits="userSpaceOnUse" gradientTransform="translate(132.383 23.7027) rotate(52.378) scale(34.1686 18.0964)">
<stop stop-color="#FF93BA"/>
<stop offset="1" stop-color="#FF73A6" stop-opacity="0"/>
</radialGradient>
</defs>
</svg>
