<svg width="21" height="22" viewBox="0 0 21 22" fill="none" xmlns="http://www.w3.org/2000/svg">
<path d="M19.2238 16.8025C19.2238 17.1325 19.1538 17.4717 19.005 17.8017C18.8563 18.1317 18.6638 18.4433 18.41 18.7367C17.9813 19.2317 17.5088 19.5892 16.975 19.8183C16.45 20.0475 15.8813 20.1667 15.2688 20.1667C14.3763 20.1667 13.4225 19.9467 12.4163 19.4975C11.41 19.0483 10.4038 18.4433 9.40625 17.6825C8.4 16.9125 7.44625 16.06 6.53625 15.1158C5.635 14.1625 4.82125 13.1633 4.095 12.1183C3.3775 11.0733 2.8 10.0283 2.38 8.99251C1.96 7.94751 1.75 6.94834 1.75 5.99501C1.75 5.37168 1.855 4.77584 2.065 4.22584C2.275 3.66668 2.6075 3.15334 3.07125 2.69501C3.63125 2.11751 4.24375 1.83334 4.89125 1.83334C5.13625 1.83334 5.38125 1.88834 5.6 1.99834C5.8275 2.10834 6.02875 2.27334 6.18625 2.51168L8.21625 5.50918C8.37375 5.73834 8.4875 5.94918 8.56625 6.15084C8.645 6.34334 8.68875 6.53584 8.68875 6.71001C8.68875 6.93001 8.6275 7.15001 8.505 7.36084C8.39125 7.57168 8.225 7.79168 8.015 8.01168L7.35 8.73584C7.25375 8.83668 7.21 8.95584 7.21 9.10251C7.21 9.17584 7.21875 9.24001 7.23625 9.31334C7.2625 9.38668 7.28875 9.44168 7.30625 9.49668C7.46375 9.79918 7.735 10.1933 8.12 10.67C8.51375 11.1467 8.93375 11.6325 9.38875 12.1183C9.86125 12.6042 10.3163 13.0533 10.78 13.4658C11.235 13.8692 11.6113 14.1442 11.9088 14.3092C11.9525 14.3275 12.005 14.355 12.0663 14.3825C12.1363 14.41 12.2063 14.4192 12.285 14.4192C12.4338 14.4192 12.5475 14.3642 12.6438 14.2633L13.3088 13.5758C13.5275 13.3467 13.7375 13.1725 13.9388 13.0625C14.14 12.9342 14.3413 12.87 14.56 12.87C14.7263 12.87 14.9013 12.9067 15.0938 12.9892C15.2863 13.0717 15.4875 13.1908 15.7063 13.3467L18.6025 15.5008C18.83 15.6658 18.9875 15.8583 19.0838 16.0875C19.1713 16.3167 19.2238 16.5458 19.2238 16.8025Z" stroke="white" stroke-width="1.5" stroke-miterlimit="10"/>
</svg>
