<svg width="33" height="32" viewBox="0 0 33 32" fill="none" xmlns="http://www.w3.org/2000/svg">
<g id="ion:camera-sharp">
<path id="Vector" d="M16.5 21C18.7091 21 20.5 19.2091 20.5 17C20.5 14.7909 18.7091 13 16.5 13C14.2909 13 12.5 14.7909 12.5 17C12.5 19.2091 14.2909 21 16.5 21Z" fill="white"/>
<path id="Vector_2" d="M29 9H23.8125C23.625 9 23.3925 8.87875 23.2113 8.6875L21.5063 6.0125C20.8125 5 20.5 5 19.375 5H13.625C12.5 5 12.125 5 11.4956 6.01312L9.78875 8.6875C9.65 8.83875 9.455 9 9.25 9V8C9.25 7.86739 9.19732 7.74021 9.10355 7.64645C9.00979 7.55268 8.88261 7.5 8.75 7.5H6.25C6.11739 7.5 5.99021 7.55268 5.89645 7.64645C5.80268 7.74021 5.75 7.86739 5.75 8V9H4C3.60218 9 3.22064 9.15804 2.93934 9.43934C2.65804 9.72064 2.5 10.1022 2.5 10.5V25.5C2.5 25.8978 2.65804 26.2794 2.93934 26.5607C3.22064 26.842 3.60218 27 4 27H29C29.3978 27 29.7794 26.842 30.0607 26.5607C30.342 26.2794 30.5 25.8978 30.5 25.5V10.5C30.5 10.1022 30.342 9.72064 30.0607 9.43934C29.7794 9.15804 29.3978 9 29 9ZM16.7819 22.9937C15.5725 23.0506 14.3743 22.7402 13.3446 22.1034C12.3149 21.4666 11.5019 20.5333 11.0125 19.4259C10.5231 18.3186 10.3801 17.0891 10.6023 15.8989C10.8246 14.7088 11.4016 13.6138 12.2577 12.7577C13.1138 11.9016 14.2088 11.3246 15.3989 11.1023C16.5891 10.8801 17.8186 11.0231 18.9259 11.5125C20.0333 12.0019 20.9666 12.8149 21.6034 13.8446C22.2402 14.8743 22.5506 16.0725 22.4937 17.2819C22.4221 18.7736 21.7973 20.1852 20.7413 21.2413C19.6852 22.2973 18.2736 22.9221 16.7819 22.9937Z" fill="white"/>
</g>
</svg>
