<svg width="24" height="24" viewBox="0 0 24 24" fill="none" xmlns="http://www.w3.org/2000/svg">
<path d="M3 3H3.27208C3.7533 3 3.99391 3 4.19086 3.085C4.36345 3.161 4.51168 3.282 4.61726 3.436C4.73909 3.61 4.78274 3.843 4.86904 4.307L7.06092 16H17.6416C18.1015 16 18.332 16 18.5229 15.92C18.6911 15.8492 18.8367 15.7348 18.9442 15.589C19.066 15.424 19.1178 15.204 19.2213 14.763V14.76L20.8153 7.96C20.9716 7.291 21.0508 6.955 20.9645 6.692C20.8882 6.46142 20.7294 6.26598 20.5178 6.142C20.2782 6 19.93 6 19.2335 6H5.53807M18.2284 21C17.9592 21 17.701 20.8946 17.5106 20.7071C17.3202 20.5196 17.2132 20.2652 17.2132 20C17.2132 19.7348 17.3202 19.4804 17.5106 19.2929C17.701 19.1054 17.9592 19 18.2284 19C18.4977 19 18.7559 19.1054 18.9463 19.2929C19.1367 19.4804 19.2437 19.7348 19.2437 20C19.2437 20.2652 19.1367 20.5196 18.9463 20.7071C18.7559 20.8946 18.4977 21 18.2284 21ZM8.07615 21C7.80689 21 7.54867 20.8946 7.35827 20.7071C7.16788 20.5196 7.06092 20.2652 7.06092 20C7.06092 19.7348 7.16788 19.4804 7.35827 19.2929C7.54867 19.1054 7.80689 19 8.07615 19C8.34541 19 8.60363 19.1054 8.79403 19.2929C8.98442 19.4804 9.09138 19.7348 9.09138 20C9.09138 20.2652 8.98442 20.5196 8.79403 20.7071C8.60363 20.8946 8.34541 21 8.07615 21Z" stroke="#313131" stroke-width="2" stroke-linecap="round" stroke-linejoin="round"/>
</svg>
