<svg width="20" height="20" viewBox="0 0 20 20" fill="none" xmlns="http://www.w3.org/2000/svg">
<path d="M10.0001 14.1667C10.2362 14.1667 10.4342 14.0867 10.5942 13.9267C10.7542 13.7667 10.834 13.569 10.8334 13.3334C10.8329 13.0979 10.7529 12.9001 10.5934 12.7401C10.434 12.5801 10.2362 12.5001 10.0001 12.5001C9.76397 12.5001 9.56619 12.5801 9.40675 12.7401C9.2473 12.9001 9.1673 13.0979 9.16675 13.3334C9.16619 13.569 9.24619 13.767 9.40675 13.9276C9.5673 14.0881 9.76508 14.1679 10.0001 14.1667ZM9.16675 10.8334H10.8334V5.83341H9.16675V10.8334ZM10.0001 18.3334C8.8473 18.3334 7.76397 18.1145 6.75008 17.6767C5.73619 17.239 4.85425 16.6454 4.10425 15.8959C3.35425 15.1465 2.76064 14.2645 2.32342 13.2501C1.88619 12.2356 1.6673 11.1523 1.66675 10.0001C1.66619 8.84786 1.88508 7.76453 2.32342 6.75008C2.76175 5.73564 3.35536 4.85369 4.10425 4.10425C4.85314 3.3548 5.73508 2.76119 6.75008 2.32341C7.76508 1.88564 8.84842 1.66675 10.0001 1.66675C11.1517 1.66675 12.2351 1.88564 13.2501 2.32341C14.2651 2.76119 15.147 3.3548 15.8959 4.10425C16.6448 4.85369 17.2387 5.73564 17.6776 6.75008C18.1165 7.76453 18.3351 8.84786 18.3334 10.0001C18.3317 11.1523 18.1129 12.2356 17.6767 13.2501C17.2406 14.2645 16.647 15.1465 15.8959 15.8959C15.1448 16.6454 14.2629 17.2392 13.2501 17.6776C12.2373 18.1159 11.154 18.3345 10.0001 18.3334ZM10.0001 16.6667C11.8612 16.6667 13.4376 16.0209 14.7292 14.7292C16.0209 13.4376 16.6667 11.8612 16.6667 10.0001C16.6667 8.13897 16.0209 6.56258 14.7292 5.27091C13.4376 3.97925 11.8612 3.33341 10.0001 3.33341C8.13897 3.33341 6.56258 3.97925 5.27092 5.27091C3.97925 6.56258 3.33342 8.13897 3.33342 10.0001C3.33342 11.8612 3.97925 13.4376 5.27092 14.7292C6.56258 16.0209 8.13897 16.6667 10.0001 16.6667Z" fill="#FF0000"/>
</svg>
