<svg width="14" height="13" viewBox="0 0 14 13" fill="none" xmlns="http://www.w3.org/2000/svg">
<g id="Frame 13">
<path id="Vector" d="M13.3637 2.92505H9.54547" stroke="white" stroke-miterlimit="10" stroke-linecap="round" stroke-linejoin="round"/>
<path id="Vector_2" d="M3.18181 2.92505H0.636353" stroke="white" stroke-miterlimit="10" stroke-linecap="round" stroke-linejoin="round"/>
<path id="Vector_3" d="M5.72727 5.1999C6.95736 5.1999 7.95455 4.18135 7.95455 2.9249C7.95455 1.66845 6.95736 0.649902 5.72727 0.649902C4.49718 0.649902 3.5 1.66845 3.5 2.9249C3.5 4.18135 4.49718 5.1999 5.72727 5.1999Z" stroke="white" stroke-miterlimit="10" stroke-linecap="round" stroke-linejoin="round"/>
<path id="Vector_4" d="M13.3636 10.075H10.8182" stroke="white" stroke-miterlimit="10" stroke-linecap="round" stroke-linejoin="round"/>
<path id="Vector_5" d="M4.45453 10.075H0.636353" stroke="white" stroke-miterlimit="10" stroke-linecap="round" stroke-linejoin="round"/>
<path id="Vector_6" d="M8.27274 12.35C9.50283 12.35 10.5 11.3315 10.5 10.075C10.5 8.8186 9.50283 7.80005 8.27274 7.80005C7.04266 7.80005 6.04547 8.8186 6.04547 10.075C6.04547 11.3315 7.04266 12.35 8.27274 12.35Z" stroke="white" stroke-miterlimit="10" stroke-linecap="round" stroke-linejoin="round"/>
</g>
</svg>
