<svg width="20" height="20" viewBox="0 0 20 20" fill="none" xmlns="http://www.w3.org/2000/svg">
<path d="M4.78534 12.5038C4.62125 12.3397 4.39869 12.2476 4.16663 12.2476M4.78534 12.5038L4.16663 12.2476M4.78534 12.5038C4.94944 12.6679 5.04163 12.8905 5.04163 13.1226V14.9584H14.9583V13.1226C14.9583 12.8905 15.0505 12.6679 15.2146 12.5038C15.3787 12.3397 15.6012 12.2476 15.8333 12.2476C16.0654 12.2476 16.2879 12.3397 16.452 12.5038C16.6161 12.6679 16.7083 12.8905 16.7083 13.1226V15.0001C16.7083 15.4531 16.5283 15.8877 16.2079 16.208C15.8876 16.5284 15.453 16.7084 15 16.7084H4.99996C4.54688 16.7084 4.11236 16.5284 3.79199 16.208C3.47161 15.8877 3.29163 15.4531 3.29163 15.0001V13.1226C3.29163 12.8905 3.38381 12.6679 3.54791 12.5038C3.712 12.3397 3.93456 12.2476 4.16663 12.2476M4.78534 12.5038L4.16663 12.2476" fill="white" stroke="white" stroke-width="0.5"/>
<path d="M10.7871 4.65643C10.623 4.49233 10.4004 4.40015 10.1683 4.40015C9.93542 4.40015 9.71311 4.49377 9.54962 4.65726C9.38552 4.82136 9.29333 5.04391 9.29333 5.27598V12.0135C9.29333 12.2455 9.38552 12.4681 9.54962 12.6322C9.71371 12.7963 9.93627 12.8885 10.1683 12.8885C10.4004 12.8885 10.623 12.7963 10.7871 12.6322C10.9511 12.4681 11.0433 12.2455 11.0433 12.0135V5.27515C11.0433 5.04308 10.9511 4.82052 10.7871 4.65643Z" fill="white" stroke="white" stroke-width="0.5"/>
<path d="M9.55702 3.54122L9.55701 3.54123L6.7714 6.26187C6.68807 6.34151 6.6213 6.43683 6.57492 6.54237C6.52831 6.64842 6.50323 6.76268 6.50112 6.87851C6.49902 6.99434 6.51993 7.10943 6.56266 7.21711C6.60538 7.32479 6.66906 7.42292 6.75001 7.50579C6.83095 7.58867 6.92755 7.65465 7.03419 7.6999C7.14084 7.74515 7.25541 7.76877 7.37125 7.7694C7.4871 7.77002 7.60191 7.74764 7.70904 7.70354C7.81563 7.65967 7.91249 7.59517 7.99407 7.51375L10.1684 5.39036L12.3437 7.51477L12.3437 7.51479L12.346 7.51698C12.5126 7.67566 12.7351 7.76229 12.9652 7.75811C13.1953 7.75393 13.4145 7.65927 13.5753 7.49464C13.7361 7.33001 13.8255 7.10866 13.8243 6.87853C13.8231 6.6484 13.7312 6.42803 13.5686 6.26515L13.5687 6.26513L13.5664 6.2629L10.7797 3.54123L10.7797 3.54122C10.6162 3.3816 10.3968 3.29224 10.1684 3.29224C9.93988 3.29224 9.72048 3.3816 9.55702 3.54122Z" fill="white" stroke="white" stroke-width="0.5"/>
</svg>
