<svg width="20" height="20" viewBox="0 0 20 20" fill="none" xmlns="http://www.w3.org/2000/svg">
<path d="M4.78534 12.5038C4.62125 12.3397 4.39869 12.2476 4.16663 12.2476M4.78534 12.5038L4.16663 12.2476M4.78534 12.5038C4.94944 12.6679 5.04163 12.8905 5.04163 13.1226V14.9584H14.9583V13.1226C14.9583 12.8905 15.0505 12.6679 15.2146 12.5038C15.3787 12.3397 15.6012 12.2476 15.8333 12.2476C16.0654 12.2476 16.2879 12.3397 16.452 12.5038C16.6161 12.6679 16.7083 12.8905 16.7083 13.1226V15.0001C16.7083 15.4531 16.5283 15.8877 16.2079 16.208C15.8876 16.5284 15.453 16.7084 15 16.7084H4.99996C4.54688 16.7084 4.11236 16.5284 3.79199 16.208C3.47161 15.8877 3.29163 15.4531 3.29163 15.0001V13.1226C3.29163 12.8905 3.38381 12.6679 3.54791 12.5038C3.712 12.3397 3.93456 12.2476 4.16663 12.2476M4.78534 12.5038L4.16663 12.2476" fill="white" stroke="white" stroke-width="0.5"/>
<path d="M10.7871 4.65618C10.623 4.49209 10.4004 4.3999 10.1683 4.3999C9.93542 4.3999 9.71311 4.49353 9.54962 4.65702C9.38552 4.82111 9.29333 5.04367 9.29333 5.27574V12.0132C9.29333 12.2453 9.38552 12.4679 9.54962 12.632C9.71371 12.796 9.93627 12.8882 10.1683 12.8882C10.4004 12.8882 10.623 12.796 10.7871 12.632C10.9511 12.4679 11.0433 12.2453 11.0433 12.0132V5.2749C11.0433 5.04284 10.9511 4.82028 10.7871 4.65618Z" fill="white" stroke="white" stroke-width="0.5"/>
<path d="M9.55702 3.54098L9.55701 3.54099L6.7714 6.26162C6.68807 6.34127 6.6213 6.43659 6.57492 6.54212C6.52831 6.64818 6.50323 6.76244 6.50112 6.87827C6.49902 6.99409 6.51993 7.10919 6.56266 7.21687C6.60538 7.32455 6.66906 7.42267 6.75001 7.50555C6.83095 7.58842 6.92755 7.6544 7.03419 7.69965C7.14084 7.7449 7.25541 7.76853 7.37125 7.76915C7.4871 7.76978 7.60191 7.74739 7.70904 7.7033C7.81563 7.65942 7.91249 7.59492 7.99407 7.51351L10.1684 5.39011L12.3437 7.51453L12.3437 7.51454L12.346 7.51674C12.5126 7.67542 12.7351 7.76205 12.9652 7.75787C13.1953 7.75368 13.4145 7.65903 13.5753 7.49439C13.7361 7.32976 13.8255 7.10841 13.8243 6.87829C13.8231 6.64816 13.7312 6.42779 13.5686 6.2649L13.5687 6.26489L13.5664 6.26265L10.7797 3.54099L10.7797 3.54098C10.6162 3.38135 10.3968 3.29199 10.1684 3.29199C9.93988 3.29199 9.72048 3.38135 9.55702 3.54098Z" fill="white" stroke="white" stroke-width="0.5"/>
</svg>
