<svg width="20" height="20" viewBox="0 0 20 20" fill="none" xmlns="http://www.w3.org/2000/svg">
<path d="M2.5 2.5H2.72673C3.12775 2.5 3.32826 2.5 3.49239 2.57083C3.63621 2.63417 3.75973 2.735 3.84772 2.86333C3.94924 3.00833 3.98562 3.2025 4.05753 3.58917L5.8841 13.3333H14.7014C15.0846 13.3333 15.2767 13.3333 15.4357 13.2667C15.5759 13.2076 15.6972 13.1123 15.7868 12.9908C15.8883 12.8533 15.9315 12.67 16.0178 12.3025V12.3L17.346 6.63333C17.4763 6.07583 17.5423 5.79583 17.4704 5.57667C17.4068 5.38451 17.2745 5.22165 17.0982 5.11833C16.8985 5 16.6083 5 16.0279 5H4.61506M15.1904 17.5C14.966 17.5 14.7508 17.4122 14.5921 17.2559C14.4335 17.0996 14.3443 16.8877 14.3443 16.6667C14.3443 16.4457 14.4335 16.2337 14.5921 16.0774C14.7508 15.9211 14.966 15.8333 15.1904 15.8333C15.4148 15.8333 15.6299 15.9211 15.7886 16.0774C15.9473 16.2337 16.0364 16.4457 16.0364 16.6667C16.0364 16.8877 15.9473 17.0996 15.7886 17.2559C15.6299 17.4122 15.4148 17.5 15.1904 17.5ZM6.73012 17.5C6.50575 17.5 6.29056 17.4122 6.1319 17.2559C5.97323 17.0996 5.8841 16.8877 5.8841 16.6667C5.8841 16.4457 5.97323 16.2337 6.1319 16.0774C6.29056 15.9211 6.50575 15.8333 6.73012 15.8333C6.9545 15.8333 7.16969 15.9211 7.32835 16.0774C7.48702 16.2337 7.57615 16.4457 7.57615 16.6667C7.57615 16.8877 7.48702 17.0996 7.32835 17.2559C7.16969 17.4122 6.9545 17.5 6.73012 17.5Z" stroke="white" stroke-width="2" stroke-linecap="round" stroke-linejoin="round"/>
</svg>
