<svg width="21" height="22" viewBox="0 0 21 22" fill="none" xmlns="http://www.w3.org/2000/svg">
<path d="M19.25 9.62501V14.2083C19.25 17.4167 17.5 18.7917 14.875 18.7917H6.125C3.5 18.7917 1.75 17.4167 1.75 14.2083V7.79168C1.75 4.58334 3.5 3.20834 6.125 3.20834H12.25" stroke="white" stroke-width="1.5" stroke-miterlimit="10" stroke-linecap="round" stroke-linejoin="round"/>
<path d="M6.125 8.25L8.86375 10.5417C9.765 11.2933 11.2438 11.2933 12.145 10.5417L13.1775 9.68" stroke="white" stroke-width="1.5" stroke-miterlimit="10" stroke-linecap="round" stroke-linejoin="round"/>
<path d="M17.0625 7.33333C18.2706 7.33333 19.25 6.30732 19.25 5.04167C19.25 3.77601 18.2706 2.75 17.0625 2.75C15.8544 2.75 14.875 3.77601 14.875 5.04167C14.875 6.30732 15.8544 7.33333 17.0625 7.33333Z" stroke="white" stroke-width="1.5" stroke-miterlimit="10" stroke-linecap="round" stroke-linejoin="round"/>
</svg>
